<!-- Generated by IcoMoon.io -->
<svg version="1.1" xmlns="http://www.w3.org/2000/svg" width="64" height="32" viewBox="0 0 64 32">
<title>air-condition</title>
<path d="M59.013 0c2.701 0 4.987 2.24 4.987 5.013v21.867c0 2.88-2.286 5.12-4.987 5.12h-54.026c-2.701 0-4.883-2.24-4.987-4.907v-21.973c0-2.88 2.286-5.12 4.987-5.12h54.026zM30.234 21.76h-11.429v6.507h11.429v-6.507zM45.299 21.76h-11.429v6.507h11.429v-6.507zM15.169 21.76h-11.429v5.227c0 0.747 0.519 1.28 1.247 1.28h10.182v-6.507zM60.26 21.76h-11.429v6.507h10.182c0.727 0 1.351-0.533 1.247-1.28v-5.227zM59.013 3.733h-54.026c-0.727 0-1.247 0.533-1.247 1.28v13.12h56.623v-13.013c0-0.747-0.623-1.387-1.351-1.387zM52.883 8.853c1.039 0 1.87 0.853 1.87 1.92s-0.831 1.92-1.87 1.92h-6.649c-1.039 0-1.87-0.853-1.87-1.92s0.831-1.92 1.87-1.92h6.649z"></path>
</svg>
