<!-- Generated by IcoMoon.io -->
<svg version="1.1" xmlns="http://www.w3.org/2000/svg" width="34" height="32" viewBox="0 0 34 32">
<title>Bath-Tub-Icon</title>
<path d="M33.136 14.481h-26.597v-10.805c0-0.732 0.554-1.294 1.274-1.294h4.267v1.632c-1.164 0.169-2.106 1.182-2.106 2.42v2.476c0 0.563 0.443 1.013 0.997 1.013h3.934c0.554 0 0.997-0.45 0.997-1.013v-2.476c0-1.125-0.776-2.082-1.829-2.364v-2.701c0-0.563-0.443-1.013-0.997-1.013h-5.264c-1.773 0-3.214 1.463-3.214 3.264v10.805h-3.602c-0.554 0-0.997 0.45-0.997 1.013s0.443 1.013 0.997 1.013h1.33v4.502c0 3.32 2.438 6.078 5.597 6.528l-1.219 2.757c-0.222 0.506 0 1.069 0.499 1.294 0.111 0.056 0.277 0.113 0.388 0.113 0.388 0 0.72-0.225 0.887-0.563l1.552-3.489h15.238c0.111 0 0.222 0 0.388 0l1.552 3.489c0.166 0.394 0.499 0.563 0.887 0.563 0.111 0 0.277 0 0.388-0.113 0.499-0.225 0.72-0.788 0.499-1.294l-1.385-3.095c2.438-0.957 4.211-3.377 4.211-6.19v-4.502h1.33c0.554 0 0.997-0.45 0.997-1.013 0-0.506-0.443-0.957-0.997-0.957zM13.908 7.953h-1.995v-1.519c0-0.281 0.222-0.506 0.499-0.506h0.997c0.277 0 0.499 0.225 0.499 0.506v1.519zM29.867 20.952c0 2.532-2.050 4.671-4.599 4.671h-16.402c-2.494 0-4.599-2.082-4.599-4.671v-4.502h25.6v4.502z"></path>
</svg>
