<!-- Generated by IcoMoon.io -->
<svg version="1.1" xmlns="http://www.w3.org/2000/svg" width="23" height="32" viewBox="0 0 23 32">
<title>Bed-Icon</title>
<path d="M22.68 22.909v-0.052c0 0 0 0 0-0.052l-3.063-12.831v-7.169c0-1.558-1.225-2.805-2.757-2.805h-10.823c-1.532 0-2.757 1.247-2.757 2.805v7.169l-3.063 12.831c0 0.052-0.051 0.156-0.051 0.208v8.052c0 0.519 0.408 0.935 0.919 0.935s0.919-0.416 0.919-0.935v-1.455c0.204-0.571 3.267-1.974 9.495-1.974s9.291 1.455 9.496 1.974v1.455c0 0.519 0.408 0.935 0.919 0.935s0.919-0.416 0.919-0.935v-8c-0.102-0.052-0.153-0.104-0.153-0.156zM4.863 11.013h13.12l2.655 11.117h-18.429l2.655-11.117zM5.068 2.805c0-0.519 0.408-0.987 0.97-0.987h10.823c0.511 0 0.97 0.416 0.97 0.987v6.39h-12.763v-6.39zM11.449 25.818c-2.859 0-7.096 0.364-9.495 1.558v-3.429h18.94v3.429c-2.348-1.195-6.586-1.558-9.444-1.558z"></path>
</svg>
