<!-- Generated by IcoMoon.io -->
<svg version="1.1" xmlns="http://www.w3.org/2000/svg" width="72" height="32" viewBox="0 0 72 32">
<title>bread</title>
<path d="M36.058 1c-20.136 0-36.058 8.468-36.058 19.113 0 0.968 0.117 2.056 0.468 3.145 0.702 2.177 2.341 3.871 4.566 4.597 5.971 1.936 17.795 3.145 30.907 3.145s24.936-1.21 30.907-3.145c2.224-0.726 3.863-2.419 4.566-4.476l0.117-0.242c0.234-1.089 0.469-2.056 0.469-3.024 0.116-10.766-15.805-19.113-35.942-19.113zM67.784 21.927v0.121c-0.234 0.847-0.937 1.573-1.873 1.815-5.619 1.814-17.326 2.903-29.853 2.903s-24.234-1.21-29.736-2.903c-0.937-0.363-1.639-0.968-1.873-1.815-0.234-0.605-0.234-1.331-0.234-1.935 0-4.234 4.097-8.226 10.536-11.008 1.171 5.202 4.8 8.952 9.132 8.952 1.171 0 2.107-0.968 2.107-2.177s-0.937-2.177-2.107-2.177c-2.459 0-4.683-2.54-5.268-6.169 3.512-1.089 7.61-1.935 11.824-2.298 0.703 5.927 4.215 12.702 9.366 12.702 1.171 0 2.107-0.968 2.107-2.177s-0.937-2.177-2.107-2.177c-2.224 0-4.683-4.234-5.268-8.71 0.468 0 1.054 0 1.522 0 3.512 0 7.024 0.242 10.185 0.847 0.234 6.653 4.449 12.097 9.483 12.097 1.171 0 2.107-0.968 2.107-2.177s-0.937-2.177-2.107-2.177c-2.693 0-4.917-3.145-5.385-7.016 10.302 2.54 17.561 7.621 17.561 13.306 0.117 0.968 0 1.573-0.117 2.177z"></path>
</svg>
