<!-- Generated by IcoMoon.io -->
<svg version="1.1" xmlns="http://www.w3.org/2000/svg" width="27" height="32" viewBox="0 0 27 32">
<title>cutleries</title>
<path d="M20.99 0c3.073 0 5.625 2.498 5.677 5.672v11.187c0 0.937-0.729 1.665-1.667 1.665h-1.094v11.083c0 1.301-1.094 2.393-2.396 2.393h-1.51c-1.302 0-2.396-1.093-2.396-2.393v-27.941c0-0.937 0.729-1.665 1.667-1.665h1.719zM5.625 0.052c0.521 0 0.938 0.416 0.938 0.937v7.961h2.917v-7.909c0-0.52 0.417-0.937 0.938-0.937s0.885 0.416 0.937 0.885v13.32c0 0.78-0.573 1.353-1.354 1.353h-1.198v13.893c0 1.301-1.094 2.393-2.396 2.393h-1.458c-1.302 0-2.396-1.093-2.396-2.393v-13.945h-1.198c-0.781 0-1.354-0.572-1.354-1.353v-13.268c0-0.468 0.365-0.937 0.885-0.937s0.938 0.416 0.938 0.937v7.909h2.865v-7.909c0-0.52 0.417-0.937 0.938-0.937zM22.083 18.524h-2.656v11.083c0 0.312 0.26 0.572 0.573 0.572h1.51c0.313 0 0.573-0.312 0.573-0.624v-11.031zM6.979 15.662h-2.604v13.945c0 0.312 0.26 0.572 0.573 0.572h1.458c0.313 0 0.573-0.26 0.573-0.572v-13.945zM20.938 1.821h-1.563v14.881h5.417v-11.031c0-2.133-1.719-3.85-3.854-3.85zM9.531 10.719h-7.708v3.122h7.708v-3.122z"></path>
</svg>
