<!-- Generated by IcoMoon.io -->
<svg version="1.1" xmlns="http://www.w3.org/2000/svg" width="21" height="32" viewBox="0 0 21 32">
<title>cutlery-selection</title>
<path d="M17.989 21.316c1.862-1.971 2.82-4.616 2.661-7.313l-0.851-11.151c-0.106-1.608-1.49-2.853-3.139-2.853h-11.972c-1.649 0-3.033 1.245-3.139 2.853l-0.851 11.151c-0.213 2.697 0.745 5.342 2.66 7.313 1.65 1.763 3.938 2.852 6.385 3.060v5.757h-4.15c-0.532 0-0.958 0.415-0.958 0.934s0.426 0.933 0.958 0.933h10.163c0.532 0 0.958-0.415 0.958-0.933s-0.426-0.934-0.958-0.934h-4.15v-5.757c2.448-0.207 4.736-1.297 6.385-3.060zM4.687 1.815h11.972c0.639 0 1.224 0.519 1.277 1.141l0.372 4.668h-15.218l0.372-4.668c0-0.622 0.585-1.141 1.224-1.141zM2.611 14.107l0.319-4.616h15.484l0.319 4.616c0.16 2.23-0.585 4.305-2.128 5.964-1.543 1.608-3.671 2.541-5.959 2.541s-4.363-0.882-5.959-2.541c-1.49-1.608-2.235-3.734-2.075-5.964z"></path>
</svg>
