<!-- Generated by IcoMoon.io -->
<svg version="1.1" xmlns="http://www.w3.org/2000/svg" width="32" height="32" viewBox="0 0 32 32">
<title>facebook</title>
<path d="M18.129 32h-3.935c-1.009 0-1.816-0.855-1.816-1.912v-11.975h-3.228c-1.009 0-1.816-0.855-1.816-1.912v-3.472c0-1.057 0.807-1.912 1.816-1.912h3.128v-3.17c0-4.579 2.724-7.648 6.76-7.648h3.027c1.009 0 1.816 0.855 1.816 1.912v4.075c0 1.057-0.807 1.912-1.816 1.912h-2.068c-0.050 0-0.050 0-0.101 0 0 0.050 0 0.101 0 0.151v2.717h2.875c0.605 0.050 1.11 0.302 1.463 0.704 0.353 0.453 0.505 1.057 0.404 1.61l-0.605 3.421c-0.101 0.906-0.858 1.56-1.816 1.56h-2.32v12.025c0 1.006-0.807 1.912-1.766 1.912zM13.235 16.352c0.505 0 0.908 0.402 0.908 0.906v12.83c0 0.101 0.050 0.151 0.050 0.151h3.935c0 0 0.050-0.050 0.050-0.151v-12.931c0-0.503 0.404-0.906 0.908-0.906h3.178c0 0 0.050 0 0.050-0.050v-0.050l0.605-3.371c0-0.101 0-0.151-0.050-0.201 0 0-0.050-0.050-0.101-0.050h-3.733c-0.505 0-0.908-0.402-0.908-0.906v-3.572c0-0.906 0.151-1.912 1.866-1.912h2.068c0 0 0.050-0.050 0.050-0.151v-4.025c0-0.101-0.050-0.151-0.050-0.151h-2.976c-3.027 0-4.994 2.314-4.994 5.887v4.075c0 0.503-0.404 0.906-0.908 0.906h-4.036c0 0-0.050 0.050-0.050 0.151v3.472c0 0.101 0.050 0.151 0.050 0.151l4.086-0.101z"></path>
</svg>
