<!-- Generated by IcoMoon.io -->
<svg version="1.1" xmlns="http://www.w3.org/2000/svg" width="91" height="32" viewBox="0 0 91 32">
<title>Guest-House-Logotype-Light-Horizontal</title>
<path d="M0 0l91.022 0.003v31.984l-91.022 0.013v-32zM29.706 2.108h-27.611v27.783h27.611v-27.783zM88.935 2.103h-57.134v27.783h57.134v-27.783zM60.019 16.942v5.111c0 0.771 0.178 1.332 0.528 1.681 0.355 0.35 0.79 0.526 1.313 0.526 0.52 0 0.958-0.176 1.31-0.526s0.528-0.91 0.528-1.681v-5.111h1.74v5.148c0 1.22-0.347 2.159-1.045 2.821-0.698 0.665-1.541 0.998-2.533 0.998-1.003 0-1.849-0.334-2.541-0.998-0.692-0.662-1.040-1.601-1.040-2.821v-5.148h1.74zM70.87 16.851c0.608 0 1.207 0.133 1.804 0.4s1.13 0.625 1.602 1.073l-1.136 1.052c-0.321-0.262-0.695-0.472-1.127-0.635-0.435-0.16-0.814-0.24-1.143-0.24h-0.098c-0.371 0-0.716 0.077-1.040 0.235s-0.485 0.408-0.485 0.755c0 0.27 0.127 0.47 0.382 0.595 0.257 0.128 0.621 0.221 1.090 0.28l0.708 0.077c0.984 0.117 1.751 0.387 2.3 0.806 0.551 0.416 0.827 1.057 0.827 1.919 0 0.83-0.324 1.492-0.965 1.986-0.645 0.494-1.467 0.747-2.464 0.755h-0.077c-0.83 0-1.568-0.168-2.212-0.502s-1.154-0.763-1.53-1.289l1.132-1.049c0.228 0.32 0.568 0.598 1.021 0.835s0.984 0.355 1.589 0.355h0.077c0.511-0.008 0.92-0.109 1.228-0.304s0.462-0.456 0.462-0.787c0-0.355-0.141-0.611-0.417-0.766-0.279-0.157-0.682-0.267-1.212-0.336l-0.692-0.077c-1.992-0.238-2.986-1.046-2.986-2.434 0-0.814 0.308-1.463 0.926-1.946 0.618-0.488 1.395-0.739 2.339-0.758h0.098zM51.727 16.853c1.244 0 2.305 0.443 3.18 1.324 0.881 0.886 1.321 1.954 1.321 3.205 0 1.249-0.44 2.319-1.321 3.203-0.875 0.881-1.936 1.324-3.18 1.324s-2.302-0.443-3.178-1.324c-0.875-0.883-1.31-1.954-1.31-3.203 0-1.252 0.435-2.319 1.31-3.205 0.875-0.881 1.934-1.324 3.178-1.324zM40.015 16.942v3.59h3.416v-3.59h1.74v8.879h-1.74v-3.64h-3.416v3.64h-1.74v-8.879h1.74zM82.408 16.941v1.649h-4.135v1.94h3.819v1.649h-3.819v1.991h4.135v1.649h-5.874v-8.879h5.874zM25.746 6.304v2.1h-17.389v15.181h15.301v-6.539h-7.755v-2.1h9.843v10.74h-19.476v-19.381h19.476zM51.727 18.502c-0.782 0-1.435 0.27-1.96 0.811-0.528 0.542-0.788 1.23-0.788 2.068 0 0.843 0.26 1.537 0.788 2.074 0.525 0.536 1.178 0.806 1.96 0.806 0.79 0 1.445-0.27 1.973-0.806 0.523-0.536 0.788-1.23 0.788-2.074 0-0.838-0.265-1.527-0.796-2.068-0.528-0.542-1.183-0.811-1.965-0.811zM42.171 6.094c1.31 0 2.419 0.491 3.329 1.471l-1.135 1.052c-0.581-0.584-1.31-0.875-2.194-0.875-0.782 0-1.435 0.27-1.96 0.806-0.528 0.536-0.788 1.23-0.788 2.074 0 0.838 0.26 1.529 0.788 2.068 0.525 0.542 1.178 0.814 1.96 0.814 0.597 0 1.125-0.165 1.589-0.496v-1.535h-1.615v-1.318h3.355v3.523c-0.91 0.982-2.018 1.473-3.329 1.473-1.244 0-2.302-0.443-3.177-1.326-0.875-0.881-1.31-1.951-1.31-3.203 0-1.249 0.435-2.319 1.31-3.203s1.934-1.324 3.177-1.324zM70.872 6.080c0.605 0 1.207 0.133 1.801 0.4 0.599 0.267 1.132 0.622 1.602 1.073l-1.136 1.052c-0.318-0.262-0.695-0.475-1.127-0.635s-0.814-0.24-1.14-0.24h-0.101c-0.371 0-0.716 0.077-1.040 0.235-0.324 0.155-0.485 0.408-0.485 0.755 0 0.27 0.127 0.47 0.385 0.595 0.257 0.128 0.618 0.222 1.090 0.28l0.706 0.075c0.983 0.117 1.75 0.387 2.299 0.806 0.552 0.416 0.828 1.060 0.828 1.922 0 0.827-0.321 1.492-0.965 1.983-0.642 0.496-1.464 0.747-2.464 0.758h-0.077c-0.83 0-1.567-0.168-2.212-0.502-0.642-0.336-1.151-0.763-1.53-1.289l1.135-1.052c0.225 0.323 0.568 0.6 1.021 0.835 0.451 0.238 0.984 0.358 1.586 0.358h0.077c0.514-0.008 0.92-0.112 1.227-0.304 0.308-0.195 0.462-0.459 0.462-0.787 0-0.355-0.14-0.611-0.416-0.769-0.279-0.155-0.679-0.267-1.21-0.336l-0.695-0.075c-1.992-0.238-2.987-1.049-2.987-2.437 0-0.811 0.308-1.46 0.926-1.946s1.398-0.737 2.339-0.755h0.101zM49.893 6.169v5.111c0 0.771 0.178 1.332 0.528 1.681 0.355 0.35 0.79 0.526 1.313 0.526 0.52 0 0.958-0.176 1.31-0.526s0.528-0.91 0.528-1.681v-5.111h1.74v5.148c0 1.22-0.347 2.159-1.045 2.821-0.698 0.665-1.541 0.998-2.533 0.998-1.003 0-1.849-0.334-2.541-0.998-0.692-0.662-1.040-1.601-1.040-2.821v-5.148h1.74zM64.797 6.169v1.649h-4.135v1.94h3.819v1.649h-3.819v1.991h4.135v1.649h-5.875v-8.879h5.875zM82.761 6.168v1.649h-2.421v7.23h-1.74v-7.23h-2.419v-1.649h6.581z"></path>
</svg>
