<!-- Generated by IcoMoon.io -->
<svg version="1.1" xmlns="http://www.w3.org/2000/svg" width="32" height="32" viewBox="0 0 32 32">
<title>inst</title>
<path d="M24.038 0c4.384 0 7.962 3.533 7.962 7.924v16.101c0 4.391-3.528 7.975-7.912 7.975h-16.126c-4.384 0-7.962-3.533-7.962-7.924v-16.151c0-4.391 3.528-7.924 7.912-7.924h16.126zM24.038 1.767h-16.126c-3.376 0-6.148 2.776-6.148 6.158v16.151c0 3.432 2.772 6.208 6.148 6.208h16.176c3.376 0 6.148-2.776 6.148-6.208v-16.101c0-3.432-2.772-6.208-6.198-6.208zM15.975 8.58c4.082 0 7.408 3.331 7.408 7.42s-3.326 7.42-7.408 7.42c-4.082 0-7.408-3.331-7.408-7.42s3.326-7.42 7.408-7.42zM15.975 10.347c-3.124 0-5.644 2.524-5.644 5.653s2.52 5.653 5.644 5.653c3.124 0 5.644-2.524 5.644-5.653s-2.52-5.653-5.644-5.653zM24.088 4.946c1.058 0 1.915 0.858 1.915 1.918s-0.857 1.918-1.915 1.918c-1.058 0-1.915-0.858-1.915-1.918s0.857-1.918 1.915-1.918z"></path>
</svg>
