<!-- Generated by IcoMoon.io -->
<svg version="1.1" xmlns="http://www.w3.org/2000/svg" width="32" height="32" viewBox="0 0 32 32">
<title>modrn-kitchen</title>
<path d="M29.455 0c1.351 0 2.494 1.093 2.545 2.446v27.057c0 1.405-1.143 2.498-2.494 2.498h-27.013c-1.403 0-2.494-1.145-2.494-2.498v-27.057c0-1.353 1.091-2.446 2.442-2.446h27.013zM29.455 1.769h-27.013c-0.364 0-0.675 0.312-0.675 0.676v27.057c0 0.364 0.312 0.676 0.675 0.676h27.013c0.364 0 0.675-0.312 0.675-0.676v-27.057c0-0.364-0.312-0.676-0.675-0.676zM19.948 26.328c0.519 0 0.935 0.416 0.935 0.937s-0.416 0.937-0.935 0.937h-0.779c-0.519 0-0.935-0.416-0.935-0.937s0.416-0.937 0.935-0.937h0.779zM24.779 26.328c0.519 0 0.935 0.416 0.935 0.937s-0.416 0.937-0.935 0.937h-0.779c-0.519 0-0.935-0.416-0.935-0.937s0.416-0.937 0.935-0.937h0.779zM9.403 16.338c2.182 0 4 1.821 4 4.006s-1.818 4.006-4 4.006c-2.182 0-4-1.821-4-4.006s1.818-4.006 4-4.006zM22.494 16.338c2.234 0 4 1.821 4 4.006s-1.818 4.006-4 4.006c-2.182 0-4-1.821-4-4.006s1.818-4.006 4-4.006zM9.403 18.159c-1.195 0-2.182 0.989-2.182 2.185s0.987 2.185 2.182 2.185c1.195 0 2.182-0.989 2.182-2.185s-0.987-2.185-2.182-2.185zM22.494 18.159c-1.195 0-2.182 0.989-2.182 2.185s0.987 2.185 2.182 2.185c1.195 0 2.182-0.989 2.182-2.185s-0.987-2.185-2.182-2.185zM9.403 4.735c2.182 0 4 1.769 4 4.006 0 2.185-1.818 4.007-4 4.007s-4-1.821-4-4.007 1.818-4.006 4-4.006zM22.494 4.735c2.234 0 4 1.769 4 4.006 0 2.185-1.818 4.007-4 4.007s-4-1.821-4-4.007c0-2.185 1.818-4.006 4-4.006zM9.403 6.556c-1.195 0-2.182 0.989-2.182 2.185s0.987 2.185 2.182 2.185c1.195 0 2.182-0.989 2.182-2.185s-0.987-2.185-2.182-2.185zM22.494 6.556c-1.195 0-2.182 0.989-2.182 2.185s0.987 2.185 2.182 2.185c1.195 0 2.182-0.989 2.182-2.185s-0.987-2.185-2.182-2.185z"></path>
</svg>
