<!-- Generated by IcoMoon.io -->
<svg version="1.1" xmlns="http://www.w3.org/2000/svg" width="41" height="32" viewBox="0 0 41 32">
<title>natural-scenery</title>
<path d="M26.449 8.401l0.304 0.011c1.399 0.105 2.542 0.936 3.103 2.226l7.814 18.488h2.271c0.668 0 1.202 0.461 1.202 1.119s-0.534 1.184-1.202 1.184h-38.738c-0.668 0-1.202-0.461-1.202-1.119s0.534-1.184 1.202-1.184h1.469l6.813-16.448c0.534-1.382 1.803-2.237 3.34-2.237 1.536 0.066 2.805 0.855 3.406 2.237l3.072 7.171 3.807-9.211c0.534-1.382 1.803-2.237 3.34-2.237zM26.449 10.769l-0.066 0.002c-0.253 0.015-0.833 0.13-1.137 0.787l-4.742 11.382 2.672 6.25h2.204v-1.579c-1.336-0.592-2.271-2.171-2.271-4.145 0-2.5 1.536-4.408 3.406-4.408s3.406 1.974 3.406 4.408c0 1.974-0.868 3.553-2.204 4.145v1.579h7.414l-7.481-17.633c-0.267-0.724-1.002-0.79-1.202-0.79zM12.824 12.809c-0.2 0-0.868 0.066-1.202 0.79l-6.479 15.593h15.495l-6.612-15.593c-0.267-0.724-1.002-0.79-1.202-0.79zM26.516 21.296c-0.401 0-1.069 0.79-1.069 2.105s0.601 2.105 1.069 2.105 1.069-0.79 1.069-2.105c0-1.316-0.668-2.105-1.069-2.105zM35.199 0.571c2.338 0 4.208 1.842 4.208 4.145s-1.937 4.145-4.208 4.145c-2.271 0-4.208-1.842-4.208-4.145s1.87-4.145 4.208-4.145zM35.199 2.94c-1.002 0-1.87 0.79-1.87 1.842s0.801 1.842 1.87 1.842c1.069 0 1.87-0.79 1.87-1.842s-0.868-1.842-1.87-1.842z"></path>
</svg>
