<!-- Generated by IcoMoon.io -->
<svg version="1.1" xmlns="http://www.w3.org/2000/svg" width="38" height="32" viewBox="0 0 38 32">
<title>outdoor-paths</title>
<path d="M31.054 9.755l0.208 0.011c0.476 0.052 0.893 0.286 1.166 0.659l3.622 4.813c0.375 0.487 0.437 1.157 0.125 1.706-0.187 0.305-0.437 0.548-0.749 0.731l2.748 4.569c0.312 0.548 0.312 1.158-0.063 1.706-0.25 0.548-0.812 0.853-1.436 0.853h-4.496v5.3c0 0.609-0.5 1.097-1.124 1.097s-1.124-0.487-1.124-1.097v-5.3h-4.559c-0.562 0-1.124-0.366-1.436-0.853s-0.312-1.158 0-1.645l2.748-4.63c-0.312-0.122-0.562-0.426-0.749-0.731-0.312-0.548-0.25-1.218 0.125-1.706l3.622-4.813c0.312-0.426 0.812-0.67 1.374-0.67zM10.322 0.8c0.562 0 1.062 0.244 1.374 0.67l5.87 7.676c0.375 0.487 0.437 1.158 0.125 1.706s-0.874 0.914-1.561 0.914l4.434 7.615c0.312 0.487 0.312 1.158 0 1.645-0.25 0.487-0.812 0.792-1.436 0.792h-7.619v8.224c0 0.609-0.5 1.097-1.124 1.097s-1.124-0.487-1.124-1.097v-8.224h-7.556c-0.624 0-1.187-0.366-1.499-0.914-0.312-0.487-0.25-1.158 0.062-1.645l4.871-7.493h-0.562c-0.624 0-1.187-0.366-1.499-0.914s-0.25-1.218 0.125-1.706l5.745-7.676c0.312-0.426 0.812-0.67 1.374-0.67zM30.992 12.192l-2.81 3.716c0.25 0.122 0.5 0.366 0.625 0.609 0.312 0.487 0.312 1.157 0 1.645l-2.623 4.447h9.617l-2.623-4.447c-0.312-0.487-0.312-1.158 0-1.645 0.125-0.244 0.375-0.487 0.625-0.609l-2.81-3.716zM10.322 3.298l-4.808 6.397h0.437c0.624 0 1.249 0.366 1.499 0.853s0.25 1.157-0.062 1.645l-4.808 7.493h15.612l-4.434-7.554c-0.312-0.487-0.312-1.157 0-1.645 0.312-0.426 0.812-0.792 1.374-0.792l-4.808-6.397z"></path>
</svg>
