<!-- Generated by IcoMoon.io -->
<svg version="1.1" xmlns="http://www.w3.org/2000/svg" width="27" height="32" viewBox="0 0 27 32">
<title>roler</title>
<path d="M25.113 21.351l-9.424-4.935c0.104-0.312 0-0.727-0.311-0.935-0.363-0.312-0.932-0.26-1.294 0.104-0.104 0.156-0.518 0.26-0.984 0.156-0.414-0.104-0.673-0.416-0.725-0.883-0.052-0.675 0.259-1.143 1.036-1.455 0.518-0.208 0.88-0.727 0.828-1.299v-3.377c1.968-0.416 3.418-2.182 3.418-4.312 0-2.442-1.968-4.416-4.401-4.416s-4.401 1.974-4.401 4.416c0 2.13 1.502 3.896 3.521 4.312l0.052 3.065c-1.294 0.675-2.019 1.818-1.864 3.221 0.052 0.519 0.207 0.935 0.466 1.351l-9.476 4.987c-0.777 0.364-1.294 1.091-1.502 1.922 0 0 0 0 0 0.052-0.052 0.208-0.052 0.416-0.052 0.623v5.143c0 1.61 1.295 2.909 2.9 2.909h20.867c1.605 0 2.9-1.299 2.9-2.909v-5.143c0-1.143-0.621-2.13-1.553-2.597zM10.719 4.416c0-1.455 1.139-2.597 2.589-2.597s2.589 1.143 2.589 2.597-1.139 2.597-2.589 2.597c-1.45 0-2.589-1.143-2.589-2.597zM12.738 17.558l0.052-0.052c0.259 0.052 0.466 0.104 0.725 0.104 0.155 0 0.311 0 0.466-0.052l9.527 4.987h-20.349l9.579-4.987zM23.767 30.182h-20.919c-0.621 0-1.087-0.519-1.087-1.091v-4.675h23.094v4.675c0 0.571-0.518 1.091-1.087 1.091z"></path>
</svg>
