<!-- Generated by IcoMoon.io -->
<svg version="1.1" xmlns="http://www.w3.org/2000/svg" width="34" height="32" viewBox="0 0 34 32">
<title>storage-solutions</title>
<path d="M29.592 6.263h-5.885v-1.931c0-2.151-1.76-3.862-3.85-3.862h-5.83c-2.145 0-3.85 1.765-3.85 3.862v1.931h-5.885c-2.365 0-4.29 1.931-4.29 4.303v5.406c0 0.552 0.44 0.993 0.99 0.993h0.495v10.482c0 2.262 1.815 4.082 4.070 4.082h22.772c2.255 0 4.070-1.821 4.070-4.082v-10.482h0.495c0.55 0 0.99-0.441 0.99-0.993v-5.406c0-2.372-1.925-4.303-4.29-4.303zM12.101 4.332c0-1.048 0.88-1.931 1.925-1.931h5.775c1.045 0 1.925 0.883 1.925 1.931v1.931h-9.626v-1.931zM1.98 10.566c0-1.269 1.045-2.372 2.365-2.372h25.302c1.265 0 2.365 1.048 2.365 2.372v4.468h-30.032v-4.468zM30.472 27.392c0 1.214-0.99 2.152-2.145 2.152h-22.772c-1.21 0-2.145-0.993-2.145-2.152v-10.482h6.765v3.42c0 0.552 0.44 0.993 0.99 0.993s0.99-0.441 0.99-0.993v-3.42h9.681v3.42c0 0.552 0.44 0.993 0.99 0.993s0.99-0.441 0.99-0.993v-3.42h6.765v10.482h-0.11z"></path>
</svg>
