<!-- Generated by IcoMoon.io -->
<svg version="1.1" xmlns="http://www.w3.org/2000/svg" width="32" height="32" viewBox="0 0 32 32">
<title>wi-fi</title>
<path d="M27.974 23.396c2.248 0 4.026 1.804 4.026 3.969s-1.83 3.969-4.026 3.969c-2.196 0-4.026-1.804-4.026-3.969s1.83-3.969 4.026-3.969zM29.438 0.667c0.523 0 0.941 0.412 0.941 0.928s-0.418 0.928-0.941 0.928c-15.216 0-27.608 12.164-27.555 27.213 0 0.515-0.418 0.928-0.941 0.928s-0.941-0.412-0.941-0.928c0-16.029 13.176-29.017 29.438-29.069zM29.386 9.068c0.523 0 0.941 0.412 0.941 0.928 0 0.464-0.366 0.876-0.889 0.876-10.562 0-19.137 8.453-19.085 18.812 0 0.515-0.418 0.928-0.941 0.928s-0.941-0.412-0.941-0.928c0-11.339 9.359-20.616 20.915-20.616zM29.386 17.366c0.523 0 0.941 0.412 0.941 0.928s-0.366 0.876-0.889 0.876c-5.856 0-10.667 4.69-10.667 10.514 0 0.515-0.418 0.928-0.941 0.928s-0.941-0.412-0.941-0.928c0-6.803 5.595-12.318 12.497-12.318zM27.974 25.252c-1.203 0-2.196 0.979-2.196 2.165s0.993 2.165 2.196 2.165c1.203 0 2.196-0.979 2.196-2.165s-0.994-2.165-2.196-2.165z"></path>
</svg>
